<svg width="96" height="35" viewBox="0 0 96 35" fill="none" xmlns="http://www.w3.org/2000/svg">
<path d="M40.416 14.7608H43.272C42.864 11.2568 40.224 8.49685 35.88 8.49685C30.936 8.49685 27.816 12.2648 27.816 17.4248C27.816 22.6088 30.936 26.3768 35.88 26.3768C40.248 26.3768 42.888 23.6168 43.272 19.7528H40.416C40.224 21.8408 39 23.9288 35.808 23.9288C32.112 23.9288 30.648 20.8328 30.648 17.4248C30.648 14.0408 32.112 10.9448 35.808 10.9448C38.976 10.9448 40.104 13.0328 40.416 14.7608ZM50.7122 26.3768C46.8722 26.3768 44.5442 23.7128 44.5442 19.8968C44.5442 16.0808 46.8722 13.4168 50.7122 13.4168C54.5522 13.4168 56.8802 16.0808 56.8802 19.8968C56.8802 23.7128 54.5522 26.3768 50.7122 26.3768ZM50.7122 24.3128C53.1122 24.3128 54.3602 22.4168 54.3602 19.8968C54.3602 17.3528 53.1122 15.4808 50.7122 15.4808C48.3122 15.4808 47.0642 17.3528 47.0642 19.8968C47.0642 22.4168 48.3122 24.3128 50.7122 24.3128ZM66.0379 16.9688C66.0379 18.1448 64.8859 18.3848 62.9899 18.7448C59.9179 19.3448 57.9259 20.1848 57.9259 22.8728C57.9259 24.9368 59.4619 26.3768 61.9579 26.3768C63.8539 26.3768 65.2459 25.6328 66.0139 24.5528H66.0619C66.3019 25.7528 66.9259 26.2328 68.2699 26.2328C68.7499 26.2328 69.1579 26.1848 69.7339 25.9688V24.7688C68.7499 24.8648 68.5579 24.4088 68.5579 23.5448V17.7128C68.5579 14.4488 66.5419 13.4168 63.8299 13.4168C60.1339 13.4168 58.6219 15.2648 58.5019 17.6168H60.9499C61.0699 16.0328 61.8139 15.4088 63.8299 15.4088C65.5099 15.4088 66.0379 16.0808 66.0379 16.9688ZM62.5099 24.3848C61.1419 24.3848 60.4699 23.7608 60.4699 22.6328C60.4699 21.3848 61.3819 20.7848 63.4699 20.3288C64.6459 20.0888 65.6299 19.8008 66.0379 19.5128V21.3608C66.0379 23.3528 64.5979 24.3848 62.5099 24.3848ZM79.6558 18.2408H82.1758C81.8638 15.4568 79.7758 13.4168 76.5838 13.4168C72.9358 13.4168 70.5598 16.0568 70.5598 19.8968C70.5598 23.7368 72.9358 26.3768 76.6078 26.3768C79.7998 26.3768 81.9838 24.2888 82.1758 21.4568H79.6558C79.5598 22.8248 78.7678 24.3128 76.6078 24.3128C74.1118 24.3128 73.0798 22.2008 73.0798 19.8968C73.0798 17.5928 74.1358 15.4808 76.6078 15.4808C78.7678 15.4808 79.5598 16.9928 79.6558 18.2408ZM90.3926 13.4168C88.3286 13.4168 87.0566 14.3768 86.4086 15.3368H86.3606V8.85684H83.8406V26.0168H86.3606V18.5528C86.3606 16.7288 87.6806 15.5528 89.5286 15.5528C91.2806 15.5528 91.9766 16.6088 91.9766 18.2648V26.0168H94.5206V17.5448C94.5206 14.7368 92.7206 13.4168 90.3926 13.4168Z" fill="#0C0C0D"/>
<path d="M21 17.0168C21 11.494 16.5228 7.01685 11 7.01685C5.47715 7.01685 1 11.494 1 17.0168C1 22.5397 5.47715 27.0168 11 27.0168C14.0413 27.0168 16.7655 25.6592 18.5996 23.5168" stroke="#0C0C0D" stroke-width="2" stroke-linecap="round"/>
<circle cx="11" cy="17.0168" r="5" fill="#0C0C0D"/>
</svg>
