<svg width="97" height="35" viewBox="0 0 97 35" fill="none" xmlns="http://www.w3.org/2000/svg">
<path d="M40.4375 15.1593H43.2935C42.8855 11.6553 40.2455 8.89528 35.9015 8.89528C30.9575 8.89528 27.8375 12.6633 27.8375 17.8233C27.8375 23.0073 30.9575 26.7753 35.9015 26.7753C40.2695 26.7753 42.9095 24.0153 43.2935 20.1513H40.4375C40.2455 22.2393 39.0215 24.3273 35.8295 24.3273C32.1335 24.3273 30.6695 21.2313 30.6695 17.8233C30.6695 14.4393 32.1335 11.3433 35.8295 11.3433C38.9975 11.3433 40.1255 13.4313 40.4375 15.1593ZM50.7337 26.7753C46.8937 26.7753 44.5657 24.1113 44.5657 20.2953C44.5657 16.4793 46.8937 13.8153 50.7337 13.8153C54.5737 13.8153 56.9017 16.4793 56.9017 20.2953C56.9017 24.1113 54.5737 26.7753 50.7337 26.7753ZM50.7337 24.7113C53.1337 24.7113 54.3817 22.8153 54.3817 20.2953C54.3817 17.7513 53.1337 15.8793 50.7337 15.8793C48.3337 15.8793 47.0857 17.7513 47.0857 20.2953C47.0857 22.8153 48.3337 24.7113 50.7337 24.7113ZM66.0594 17.3673C66.0594 18.5433 64.9074 18.7833 63.0114 19.1433C59.9394 19.7433 57.9474 20.5833 57.9474 23.2713C57.9474 25.3353 59.4834 26.7753 61.9794 26.7753C63.8754 26.7753 65.2674 26.0313 66.0354 24.9513H66.0834C66.3234 26.1513 66.9474 26.6313 68.2914 26.6313C68.7714 26.6313 69.1794 26.5833 69.7554 26.3673V25.1673C68.7714 25.2633 68.5794 24.8073 68.5794 23.9433V18.1113C68.5794 14.8473 66.5634 13.8153 63.8514 13.8153C60.1554 13.8153 58.6434 15.6633 58.5234 18.0153H60.9714C61.0914 16.4313 61.8354 15.8073 63.8514 15.8073C65.5314 15.8073 66.0594 16.4793 66.0594 17.3673ZM62.5314 24.7833C61.1634 24.7833 60.4914 24.1593 60.4914 23.0313C60.4914 21.7833 61.4034 21.1833 63.4914 20.7273C64.6674 20.4873 65.6514 20.1993 66.0594 19.9113V21.7593C66.0594 23.7513 64.6194 24.7833 62.5314 24.7833ZM79.6773 18.6393H82.1973C81.8853 15.8553 79.7973 13.8153 76.6053 13.8153C72.9573 13.8153 70.5813 16.4553 70.5813 20.2953C70.5813 24.1353 72.9573 26.7753 76.6293 26.7753C79.8213 26.7753 82.0053 24.6873 82.1973 21.8553H79.6773C79.5813 23.2233 78.7893 24.7113 76.6293 24.7113C74.1333 24.7113 73.1013 22.5993 73.1013 20.2953C73.1013 17.9913 74.1573 15.8793 76.6293 15.8793C78.7893 15.8793 79.5813 17.3913 79.6773 18.6393ZM90.4141 13.8153C88.3501 13.8153 87.0781 14.7753 86.4301 15.7353H86.3821V9.25528H83.8621V26.4153H86.3821V18.9513C86.3821 17.1273 87.7021 15.9513 89.5501 15.9513C91.3021 15.9513 91.9981 17.0073 91.9981 18.6633V26.4153H94.5421V17.9433C94.5421 15.1353 92.7421 13.8153 90.4141 13.8153Z" fill="white"/>
<path d="M21.0215 17.4153C21.0215 11.8924 16.5443 7.41528 11.0215 7.41528C5.49864 7.41528 1.02148 11.8924 1.02148 17.4153C1.02148 22.9381 5.49864 27.4153 11.0215 27.4153C14.0628 27.4153 16.787 26.0576 18.6211 23.9153" stroke="white" stroke-width="2" stroke-linecap="round"/>
<circle cx="11.0215" cy="17.4153" r="5" fill="white"/>
</svg>
