<svg width="19" height="18" viewBox="0 0 19 18" fill="none" xmlns="http://www.w3.org/2000/svg">
<path d="M9.69993 0.438926C9.7598 0.254663 10.0205 0.254664 10.0803 0.438926L12.0904 6.62515C12.1171 6.70755 12.1939 6.76335 12.2806 6.76335H18.7852C18.9789 6.76335 19.0595 7.01127 18.9027 7.12515L13.6404 10.9484C13.5703 10.9994 13.541 11.0896 13.5678 11.1721L15.5778 17.3583C15.6376 17.5425 15.4268 17.6958 15.27 17.5819L10.0077 13.7586C9.9376 13.7077 9.84268 13.7077 9.77258 13.7586L4.51026 17.5819C4.35352 17.6958 4.14263 17.5425 4.2025 17.3583L6.21252 11.1721C6.2393 11.0896 6.20996 10.9994 6.13987 10.9484L0.877551 7.12515C0.720809 7.01127 0.801364 6.76335 0.995109 6.76335H7.49969C7.58633 6.76335 7.66312 6.70755 7.6899 6.62515L9.69993 0.438926Z" fill="#FFCC78"/>
</svg>
